<svg xmlns="http://www.w3.org/2000/svg" width="12.5" height="16.919" viewBox="0 0 12.5 16.919">
  <g id="Group_672" data-name="Group 672" transform="translate(0)">
    <path id="Path_1093" data-name="Path 1093" d="M54.33,0a6.257,6.257,0,0,0-6.25,6.25,7.211,7.211,0,0,0,.53,2.406,10.078,10.078,0,0,0,.722,1.351L53.618,16.5a.815.815,0,0,0,1.424,0l4.286-6.493a10.038,10.038,0,0,0,.722-1.351,7.209,7.209,0,0,0,.53-2.406A6.257,6.257,0,0,0,54.33,0Zm5.042,8.371A9.236,9.236,0,0,1,58.714,9.6L54.428,16.1c-.085.128-.111.128-.2,0L49.947,9.6a9.239,9.239,0,0,1-.658-1.232,6.545,6.545,0,0,1-.473-2.121,5.515,5.515,0,1,1,11.029,0A6.551,6.551,0,0,1,59.372,8.371Z" transform="translate(-48.08 0)" fill="#fff"/>
    <path id="Path_1094" data-name="Path 1094" d="M115.389,64.008a3.309,3.309,0,1,0,3.309,3.309A3.313,3.313,0,0,0,115.389,64.008Zm0,5.882a2.574,2.574,0,1,1,2.574-2.574A2.577,2.577,0,0,1,115.389,69.89Z" transform="translate(-109.139 -61.066)" fill="#fff"/>
  </g>
</svg>
