<svg xmlns="http://www.w3.org/2000/svg" width="30" height="30" viewBox="0 0 30 30">
  <g id="participating-icon" transform="translate(-29 -518)">
    <rect id="Rectangle_16" data-name="Rectangle 16" width="30" height="30" transform="translate(29 518)" fill="none"/>
    <path id="Path_2045" data-name="Path 2045" d="M230.4,406.792a.4.4,0,1,0-.4-.4A.4.4,0,0,0,230.4,406.792Zm0,0" transform="translate(-186.9 131.863)" fill="#707070"/>
    <path id="Path_2046" data-name="Path 2046" d="M322.772,366H320.4a.4.4,0,0,0-.4.4v2.376a.4.4,0,0,0,.4.4h2.376a.4.4,0,0,0,.4-.4V366.4A.4.4,0,0,0,322.772,366Zm-.4,2.376h-1.584v-1.584h1.584Zm0,0" transform="translate(-273.336 170.278)" fill="#707070"/>
    <path id="Path_2047" data-name="Path 2047" d="M82.772,126H80.4a.4.4,0,0,0-.4.4v2.376a.4.4,0,0,0,.4.4h2.376a.4.4,0,0,0,.4-.4V126.4A.4.4,0,0,0,82.772,126Zm-.4,2.376H80.792v-1.584h1.584Zm0,0" transform="translate(-42.84 400.774)" fill="#707070"/>
    <path id="Path_2048" data-name="Path 2048" d="M202.772,126H200.4a.4.4,0,0,0-.4.4v2.376a.4.4,0,0,0,.4.4h2.376a.4.4,0,0,0,.4-.4V126.4A.4.4,0,0,0,202.772,126Zm-.4,2.376h-1.584v-1.584h1.584Zm0,0" transform="translate(-158.088 400.774)" fill="#707070"/>
    <path id="Path_2049" data-name="Path 2049" d="M320,126.4v2.376a.4.4,0,0,0,.4.4h2.376a.4.4,0,0,0,.4-.4V126.4a.4.4,0,0,0-.4-.4H320.4A.4.4,0,0,0,320,126.4Zm.792.4h1.584v1.584h-1.584Zm0,0" transform="translate(-273.336 400.774)" fill="#707070"/>
    <path id="Path_2050" data-name="Path 2050" d="M82.772,246H80.4a.4.4,0,0,0-.4.4v2.376a.4.4,0,0,0,.4.4h2.376a.4.4,0,0,0,.4-.4V246.4A.4.4,0,0,0,82.772,246Zm-.4,2.376H80.792v-1.584h1.584Zm0,0" transform="translate(-42.84 285.526)" fill="#707070"/>
    <path id="Path_2051" data-name="Path 2051" d="M202.772,246H200.4a.4.4,0,0,0-.4.4v2.376a.4.4,0,0,0,.4.4h2.376a.4.4,0,0,0,.4-.4V246.4A.4.4,0,0,0,202.772,246Zm-.4,2.376h-1.584v-1.584h1.584Zm0,0" transform="translate(-158.088 285.526)" fill="#707070"/>
    <path id="Path_2052" data-name="Path 2052" d="M322.772,246H320.4a.4.4,0,0,0-.4.4v2.376a.4.4,0,0,0,.4.4h2.376a.4.4,0,0,0,.4-.4V246.4A.4.4,0,0,0,322.772,246Zm-.4,2.376h-1.584v-1.584h1.584Zm0,0" transform="translate(-273.336 285.526)" fill="#707070"/>
    <path id="Path_2053" data-name="Path 2053" d="M82.772,366H80.4a.4.4,0,0,0-.4.4v2.376a.4.4,0,0,0,.4.4h2.376a.4.4,0,0,0,.4-.4V366.4A.4.4,0,0,0,82.772,366Zm-.4,2.376H80.792v-1.584h1.584Zm0,0" transform="translate(-42.84 170.278)" fill="#707070"/>
    <path id="Path_2054" data-name="Path 2054" d="M14.652,0H4.356a.4.4,0,0,0-.4.4V2.614H1.98a.4.4,0,0,0-.4.4V19.484H.4a.4.4,0,1,0,0,.792H18.612a.4.4,0,1,0,0-.792H17.424V3.01a.4.4,0,0,0-.4-.4h-1.98V.4A.4.4,0,0,0,14.652,0Zm-9.9.792h9.5V2.614h-9.5Zm6.336,18.692H9.9V18.058a.4.4,0,1,0-.792,0v1.426H7.92v-4.2h3.168Zm5.544,0H11.88V14.89a.4.4,0,0,0-.4-.4H7.524a.4.4,0,0,0-.4.4v4.594H2.376V3.406H16.632Zm0,0" transform="translate(33.992 521.785)" fill="#707070"/>
  </g>
</svg>
